<mxfile host="app.diagrams.net" agent="Mozilla/5.0 (Windows NT 10.0; Win64; x64) AppleWebKit/537.36 (KHTML, like Gecko) Chrome/139.0.0.0 Safari/537.36" version="28.1.2">
  <diagram name="Microservice Deployment on Kubernetes" id="diagram1">
    <mxGraphModel dx="4562" dy="1216" grid="1" gridSize="10" guides="1" tooltips="1" connect="1" arrows="1" fold="1" page="1" pageScale="1" pageWidth="2000" pageHeight="2000" math="0" shadow="0">
      <root>
        <mxCell id="0" />
        <mxCell id="1" parent="0" />
        <mxCell id="title" value="Microservice Deployment on Kubernetes" style="text;html=1;fontSize=20;fontStyle=1" parent="1" vertex="1">
          <mxGeometry x="700" y="140" width="400" height="40" as="geometry" />
        </mxCell>
        <mxCell id="terraform" value="Terraform&#xa;(provisions infrastructure)" style="ellipse;whiteSpace=wrap;html=1;" parent="1" vertex="1">
          <mxGeometry x="-60" y="430" width="180" height="80" as="geometry" />
        </mxCell>
        <mxCell id="arrow8" style="edgeStyle=orthogonalEdgeStyle;endArrow=block;" parent="1" source="terraform" edge="1">
          <mxGeometry relative="1" as="geometry">
            <mxPoint x="420" y="530" as="targetPoint" />
            <Array as="points">
              <mxPoint x="30" y="540" />
              <mxPoint x="370" y="540" />
              <mxPoint x="370" y="530" />
            </Array>
          </mxGeometry>
        </mxCell>
        <mxCell id="qK71iNcbj86kvYVp1wN9-1" value="" style="verticalLabelPosition=bottom;verticalAlign=top;html=1;shape=mxgraph.basic.rounded_frame;dx=10;whiteSpace=wrap;strokeColor=light-dark(#000000,#F2FF57);" vertex="1" parent="1">
          <mxGeometry x="430" y="380" width="1040" height="500" as="geometry" />
        </mxCell>
        <mxCell id="qK71iNcbj86kvYVp1wN9-2" value="MangoDB" style="ellipse;whiteSpace=wrap;html=1;" vertex="1" parent="1">
          <mxGeometry x="470" y="590" width="120" height="80" as="geometry" />
        </mxCell>
        <mxCell id="qK71iNcbj86kvYVp1wN9-3" value="Service (LoadBalancer)&lt;div&gt;80-&amp;gt;5000&lt;/div&gt;" style="ellipse;whiteSpace=wrap;html=1;" vertex="1" parent="1">
          <mxGeometry x="1040" y="590" width="260" height="80" as="geometry" />
        </mxCell>
        <mxCell id="qK71iNcbj86kvYVp1wN9-4" value="Flask Pod 1&lt;div&gt;&lt;br&gt;port: 5000&lt;/div&gt;" style="ellipse;whiteSpace=wrap;html=1;" vertex="1" parent="1">
          <mxGeometry x="770" y="690" width="120" height="80" as="geometry" />
        </mxCell>
        <mxCell id="qK71iNcbj86kvYVp1wN9-5" value="Flask Pod 2&lt;div&gt;&lt;br&gt;port: 5000&lt;/div&gt;" style="ellipse;whiteSpace=wrap;html=1;" vertex="1" parent="1">
          <mxGeometry x="770" y="480" width="120" height="80" as="geometry" />
        </mxCell>
        <mxCell id="qK71iNcbj86kvYVp1wN9-6" style="edgeStyle=orthogonalEdgeStyle;rounded=0;orthogonalLoop=1;jettySize=auto;html=1;exitX=0.5;exitY=1;exitDx=0;exitDy=0;entryX=0.722;entryY=0.893;entryDx=0;entryDy=0;entryPerimeter=0;" edge="1" parent="1" source="qK71iNcbj86kvYVp1wN9-5" target="qK71iNcbj86kvYVp1wN9-5">
          <mxGeometry relative="1" as="geometry" />
        </mxCell>
        <mxCell id="qK71iNcbj86kvYVp1wN9-7" value="&lt;div&gt;&lt;br&gt;&lt;/div&gt;&lt;div&gt;&lt;br&gt;&lt;/div&gt;&lt;span style=&quot;white-space: pre;&quot;&gt;&#x9;&lt;/span&gt;&lt;span style=&quot;white-space: pre;&quot;&gt;&#x9;&lt;/span&gt;&lt;span style=&quot;white-space: pre;&quot;&gt;&#x9;&lt;/span&gt;&lt;div&gt;&lt;span style=&quot;white-space: pre;&quot;&gt;&#x9;&lt;/span&gt;&lt;/div&gt;&lt;div&gt;&lt;span style=&quot;white-space: pre;&quot;&gt;&#x9;&lt;/span&gt;&lt;span style=&quot;white-space: pre;&quot;&gt;&#x9;&lt;/span&gt;&lt;span style=&quot;white-space: pre;&quot;&gt;&#x9;&lt;/span&gt;&amp;nbsp; Monitoring&lt;div&gt;&lt;br&gt;&lt;/div&gt;&lt;div&gt;&lt;br&gt;&lt;/div&gt;&lt;div&gt;&lt;span style=&quot;white-space: pre;&quot;&gt;&#x9;&lt;/span&gt;&lt;span style=&quot;white-space: pre;&quot;&gt;&#x9;&lt;/span&gt;(Promethus + Grafana)&lt;/div&gt;&lt;/div&gt;" style="verticalAlign=top;align=left;spacingTop=8;spacingLeft=2;spacingRight=12;shape=cube;size=10;direction=south;fontStyle=4;html=1;whiteSpace=wrap;" vertex="1" parent="1">
          <mxGeometry x="1605" y="370" width="265" height="160" as="geometry" />
        </mxCell>
        <mxCell id="qK71iNcbj86kvYVp1wN9-8" value="" style="shape=flexArrow;endArrow=classic;html=1;rounded=0;entryX=0;entryY=0;entryDx=85;entryDy=265;entryPerimeter=0;" edge="1" parent="1" target="qK71iNcbj86kvYVp1wN9-7">
          <mxGeometry width="50" height="50" relative="1" as="geometry">
            <mxPoint x="1285" y="610" as="sourcePoint" />
            <mxPoint x="1335" y="560" as="targetPoint" />
          </mxGeometry>
        </mxCell>
        <mxCell id="qK71iNcbj86kvYVp1wN9-9" value="" style="shape=flexArrow;endArrow=classic;html=1;rounded=0;" edge="1" parent="1">
          <mxGeometry width="50" height="50" relative="1" as="geometry">
            <mxPoint x="1300" y="640" as="sourcePoint" />
            <mxPoint x="1610" y="640" as="targetPoint" />
          </mxGeometry>
        </mxCell>
        <mxCell id="qK71iNcbj86kvYVp1wN9-10" value="End User&amp;nbsp;&lt;div&gt;(External IP)&lt;/div&gt;" style="ellipse;whiteSpace=wrap;html=1;" vertex="1" parent="1">
          <mxGeometry x="1650" y="600" width="210" height="100" as="geometry" />
        </mxCell>
        <mxCell id="qK71iNcbj86kvYVp1wN9-11" value="" style="shape=flexArrow;endArrow=classic;html=1;rounded=0;entryX=0;entryY=0.5;entryDx=0;entryDy=0;" edge="1" parent="1" target="qK71iNcbj86kvYVp1wN9-5">
          <mxGeometry width="50" height="50" relative="1" as="geometry">
            <mxPoint x="580" y="610" as="sourcePoint" />
            <mxPoint x="630" y="560" as="targetPoint" />
          </mxGeometry>
        </mxCell>
        <mxCell id="qK71iNcbj86kvYVp1wN9-12" value="" style="shape=flexArrow;endArrow=classic;html=1;rounded=0;exitX=0.667;exitY=1;exitDx=0;exitDy=0;exitPerimeter=0;" edge="1" parent="1" source="qK71iNcbj86kvYVp1wN9-2">
          <mxGeometry width="50" height="50" relative="1" as="geometry">
            <mxPoint x="740" y="700" as="sourcePoint" />
            <mxPoint x="770" y="730" as="targetPoint" />
          </mxGeometry>
        </mxCell>
        <mxCell id="qK71iNcbj86kvYVp1wN9-13" value="" style="shape=flexArrow;endArrow=classic;html=1;rounded=0;entryX=0.112;entryY=0.169;entryDx=0;entryDy=0;entryPerimeter=0;" edge="1" parent="1" target="qK71iNcbj86kvYVp1wN9-3">
          <mxGeometry width="50" height="50" relative="1" as="geometry">
            <mxPoint x="890" y="520" as="sourcePoint" />
            <mxPoint x="1078.2847984160667" y="611.6516649649661" as="targetPoint" />
          </mxGeometry>
        </mxCell>
        <mxCell id="qK71iNcbj86kvYVp1wN9-14" value="" style="shape=flexArrow;endArrow=classic;html=1;rounded=0;" edge="1" parent="1" target="qK71iNcbj86kvYVp1wN9-3">
          <mxGeometry width="50" height="50" relative="1" as="geometry">
            <mxPoint x="890" y="730" as="sourcePoint" />
            <mxPoint x="940" y="680" as="targetPoint" />
          </mxGeometry>
        </mxCell>
        <mxCell id="qK71iNcbj86kvYVp1wN9-94" value="AWS Cloud" style="swimlane;childLayout=stackLayout;horizontal=1;resizeParent=1;" vertex="1" parent="1">
          <mxGeometry x="420" y="370" width="1050" height="510" as="geometry" />
        </mxCell>
        <mxCell id="qK71iNcbj86kvYVp1wN9-118" value="Developer&amp;nbsp;" style="ellipse;whiteSpace=wrap;html=1;" vertex="1" parent="1">
          <mxGeometry x="330" y="990" width="150" height="80" as="geometry" />
        </mxCell>
        <mxCell id="qK71iNcbj86kvYVp1wN9-119" value="GitHub Repo" style="ellipse;whiteSpace=wrap;html=1;" vertex="1" parent="1">
          <mxGeometry x="600" y="990" width="150" height="80" as="geometry" />
        </mxCell>
        <mxCell id="qK71iNcbj86kvYVp1wN9-120" value="ArgoCD" style="ellipse;whiteSpace=wrap;html=1;" vertex="1" parent="1">
          <mxGeometry x="1140" y="1180" width="150" height="80" as="geometry" />
        </mxCell>
        <mxCell id="qK71iNcbj86kvYVp1wN9-121" value="Docker Hub" style="ellipse;whiteSpace=wrap;html=1;" vertex="1" parent="1">
          <mxGeometry x="1400" y="990" width="150" height="80" as="geometry" />
        </mxCell>
        <mxCell id="qK71iNcbj86kvYVp1wN9-122" value="GitHub Actions&amp;nbsp;&lt;br&gt;CI/CD&lt;div&gt;&amp;amp;&amp;nbsp;&lt;span style=&quot;background-color: transparent; color: light-dark(rgb(0, 0, 0), rgb(255, 255, 255));&quot;&gt;Trivy (scan image)&lt;/span&gt;&lt;/div&gt;" style="ellipse;whiteSpace=wrap;html=1;" vertex="1" parent="1">
          <mxGeometry x="860" y="990" width="150" height="80" as="geometry" />
        </mxCell>
        <mxCell id="qK71iNcbj86kvYVp1wN9-123" value="Docker&lt;div&gt;(Build &amp;amp; Push image)&lt;/div&gt;" style="ellipse;whiteSpace=wrap;html=1;" vertex="1" parent="1">
          <mxGeometry x="1130" y="990" width="150" height="80" as="geometry" />
        </mxCell>
        <mxCell id="qK71iNcbj86kvYVp1wN9-124" value="GitHub Repo" style="ellipse;whiteSpace=wrap;html=1;" vertex="1" parent="1">
          <mxGeometry x="870" y="1180" width="150" height="80" as="geometry" />
        </mxCell>
        <mxCell id="qK71iNcbj86kvYVp1wN9-125" value="" style="shape=flexArrow;endArrow=classic;html=1;rounded=0;" edge="1" parent="1">
          <mxGeometry width="50" height="50" relative="1" as="geometry">
            <mxPoint x="480" y="1029.23" as="sourcePoint" />
            <mxPoint x="600" y="1029" as="targetPoint" />
          </mxGeometry>
        </mxCell>
        <mxCell id="qK71iNcbj86kvYVp1wN9-126" value="" style="shape=flexArrow;endArrow=classic;html=1;rounded=0;entryX=0;entryY=0.5;entryDx=0;entryDy=0;" edge="1" parent="1" target="qK71iNcbj86kvYVp1wN9-122">
          <mxGeometry width="50" height="50" relative="1" as="geometry">
            <mxPoint x="750" y="1029.46" as="sourcePoint" />
            <mxPoint x="850" y="1029.23" as="targetPoint" />
          </mxGeometry>
        </mxCell>
        <mxCell id="qK71iNcbj86kvYVp1wN9-127" value="" style="shape=flexArrow;endArrow=classic;html=1;rounded=0;" edge="1" parent="1">
          <mxGeometry width="50" height="50" relative="1" as="geometry">
            <mxPoint x="1010" y="1029.46" as="sourcePoint" />
            <mxPoint x="1130" y="1029.23" as="targetPoint" />
          </mxGeometry>
        </mxCell>
        <mxCell id="qK71iNcbj86kvYVp1wN9-128" value="" style="shape=flexArrow;endArrow=classic;html=1;rounded=0;" edge="1" parent="1">
          <mxGeometry width="50" height="50" relative="1" as="geometry">
            <mxPoint x="1280" y="1029.46" as="sourcePoint" />
            <mxPoint x="1400" y="1029.23" as="targetPoint" />
          </mxGeometry>
        </mxCell>
        <mxCell id="qK71iNcbj86kvYVp1wN9-129" value="" style="shape=flexArrow;endArrow=classic;html=1;rounded=0;entryX=0.434;entryY=0.022;entryDx=0;entryDy=0;entryPerimeter=0;" edge="1" parent="1" target="qK71iNcbj86kvYVp1wN9-124">
          <mxGeometry width="50" height="50" relative="1" as="geometry">
            <mxPoint x="934.23" y="1070" as="sourcePoint" />
            <mxPoint x="934.23" y="1169.77" as="targetPoint" />
          </mxGeometry>
        </mxCell>
        <mxCell id="qK71iNcbj86kvYVp1wN9-130" value="" style="shape=flexArrow;endArrow=classic;html=1;rounded=0;" edge="1" parent="1">
          <mxGeometry width="50" height="50" relative="1" as="geometry">
            <mxPoint x="1020" y="1219.46" as="sourcePoint" />
            <mxPoint x="1140" y="1219.23" as="targetPoint" />
          </mxGeometry>
        </mxCell>
        <mxCell id="qK71iNcbj86kvYVp1wN9-131" value="" style="shape=flexArrow;endArrow=classic;html=1;rounded=0;" edge="1" parent="1">
          <mxGeometry width="50" height="50" relative="1" as="geometry">
            <mxPoint x="400" y="1070" as="sourcePoint" />
            <mxPoint x="400" y="1190" as="targetPoint" />
            <Array as="points">
              <mxPoint x="400" y="1140" />
            </Array>
          </mxGeometry>
        </mxCell>
        <mxCell id="qK71iNcbj86kvYVp1wN9-132" value="Terraform&lt;div&gt;(Infrastructure Provision)&lt;/div&gt;" style="ellipse;whiteSpace=wrap;html=1;" vertex="1" parent="1">
          <mxGeometry x="320" y="1210" width="150" height="90" as="geometry" />
        </mxCell>
        <mxCell id="qK71iNcbj86kvYVp1wN9-133" value="Cluster_aws&lt;div&gt;(AWS Cloud)&lt;/div&gt;" style="ellipse;whiteSpace=wrap;html=1;" vertex="1" parent="1">
          <mxGeometry x="1130" y="1400" width="180" height="100" as="geometry" />
        </mxCell>
        <mxCell id="qK71iNcbj86kvYVp1wN9-134" value="" style="shape=flexArrow;endArrow=classic;html=1;rounded=0;" edge="1" parent="1">
          <mxGeometry width="50" height="50" relative="1" as="geometry">
            <mxPoint x="400" y="1460" as="sourcePoint" />
            <mxPoint x="1130" y="1465" as="targetPoint" />
          </mxGeometry>
        </mxCell>
        <mxCell id="qK71iNcbj86kvYVp1wN9-135" value="" style="shape=flexArrow;endArrow=classic;html=1;rounded=0;" edge="1" parent="1">
          <mxGeometry width="50" height="50" relative="1" as="geometry">
            <mxPoint x="396.73" y="1300" as="sourcePoint" />
            <mxPoint x="397" y="1460" as="targetPoint" />
          </mxGeometry>
        </mxCell>
        <mxCell id="qK71iNcbj86kvYVp1wN9-136" value="" style="shape=flexArrow;endArrow=classic;html=1;rounded=0;exitX=0.595;exitY=1.038;exitDx=0;exitDy=0;exitPerimeter=0;" edge="1" parent="1">
          <mxGeometry width="50" height="50" relative="1" as="geometry">
            <mxPoint x="1219.23" y="1260.0000000000005" as="sourcePoint" />
            <mxPoint x="1220" y="1387" as="targetPoint" />
          </mxGeometry>
        </mxCell>
        <mxCell id="qK71iNcbj86kvYVp1wN9-137" value="" style="shape=flexArrow;endArrow=classic;html=1;rounded=0;" edge="1" parent="1">
          <mxGeometry width="50" height="50" relative="1" as="geometry">
            <mxPoint x="1320" y="1449.46" as="sourcePoint" />
            <mxPoint x="1500" y="1450" as="targetPoint" />
          </mxGeometry>
        </mxCell>
        <mxCell id="qK71iNcbj86kvYVp1wN9-138" value="Actor" style="shape=umlActor;verticalLabelPosition=bottom;verticalAlign=top;html=1;outlineConnect=0;" vertex="1" parent="1">
          <mxGeometry x="1555" y="1355" width="100" height="120" as="geometry" />
        </mxCell>
        <mxCell id="qK71iNcbj86kvYVp1wN9-139" value="End User" style="rounded=1;whiteSpace=wrap;html=1;" vertex="1" parent="1">
          <mxGeometry x="1550" y="1480" width="110" height="50" as="geometry" />
        </mxCell>
      </root>
    </mxGraphModel>
  </diagram>
</mxfile>
